<svg xmlns="http://www.w3.org/2000/svg" width="24" height="25" viewBox="0 0 24 25" fill="none">
  <circle cx="12" cy="12.5" r="11.5" fill="#FEFEFE" fill-opacity="0.04" stroke="#505050"/>
  <path d="M15.7317 7.52515H10.0453C9.37003 7.52515 8.80139 8.0938 8.80139 8.76906V9.30216H8.44599C7.6641 9.30216 7.02438 9.94188 7.02438 10.7238V16.0548C7.02438 16.8367 7.6641 17.4764 8.44599 17.4764H13.777C14.5589 17.4764 15.1986 16.8367 15.1986 16.0548V15.6994H15.7317C16.407 15.6994 16.9756 15.1307 16.9756 14.4555V8.76906C16.9756 8.0938 16.407 7.52515 15.7317 7.52515ZM14.4878 16.0548C14.4878 16.4457 14.1679 16.7656 13.777 16.7656H8.44599C8.05505 16.7656 7.73519 16.4457 7.73519 16.0548V10.7238C7.73519 10.3328 8.05505 10.013 8.44599 10.013H13.777C14.1679 10.013 14.4878 10.3328 14.4878 10.7238V16.0548ZM16.2648 14.4555C16.2648 14.7398 16.016 14.9886 15.7317 14.9886H15.1986V10.7238C15.1986 9.94188 14.5589 9.30216 13.777 9.30216H9.51219V8.76906C9.51219 8.48474 9.76097 8.23596 10.0453 8.23596H15.7317C16.016 8.23596 16.2648 8.48474 16.2648 8.76906V14.4555Z" fill="#E06963"/>
</svg>