<svg width="20" height="20" viewBox="0 0 20 20" fill="none" xmlns="http://www.w3.org/2000/svg">
<path d="M6.6702 9.50585C6.80157 9.64516 6.88064 9.83379 6.87228 10.0495L6.75916 12.9681L9.67939 13.0264C10.0966 13.0347 10.4284 13.3867 10.4123 13.8036C10.3961 14.2206 10.0375 14.5587 9.62033 14.5504L5.93767 14.4769C5.5205 14.4685 5.18862 14.1166 5.20478 13.6996L5.34743 10.019C5.36359 9.60205 5.72221 9.26389 6.13939 9.27222C6.35517 9.27653 6.53883 9.36653 6.6702 9.50585Z" fill="white"/>
<path d="M16.9283 3.37909C17.2408 3.71053 17.182 4.2852 16.7986 4.64674L7.28804 13.6148C6.90462 13.9763 6.3275 14.0013 6.01496 13.6698C5.70243 13.3384 5.76121 12.7637 6.14462 12.4022L15.6552 3.43415C16.048 3.06379 16.6158 3.04764 16.9283 3.37909Z" fill="white"/>
</svg>
