<svg width="20" height="20" viewBox="0 0 20 20" fill="none" xmlns="http://www.w3.org/2000/svg">
<path d="M13.3298 10.4942C13.1984 10.3548 13.1194 10.1662 13.1277 9.95055L13.2408 7.03192L10.3206 6.9736C9.90343 6.96527 9.57156 6.61332 9.58771 6.19637C9.60387 5.77942 9.9625 5.44126 10.3797 5.44959L14.0623 5.52314C14.4795 5.53147 14.8114 5.88343 14.7952 6.30037L14.6526 9.981C14.6364 10.3979 14.2778 10.7361 13.8606 10.7278C13.6448 10.7235 13.4612 10.6335 13.3298 10.4942Z" fill="white"/>
<path d="M3.07171 16.6209C2.75918 16.2895 2.81796 15.7148 3.20138 15.3533L12.712 6.38524C13.0954 6.02369 13.6725 5.99873 13.985 6.33017C14.2976 6.66161 14.2388 7.23628 13.8554 7.59783L4.34479 16.5659C3.95203 16.9362 3.38425 16.9524 3.07171 16.6209Z" fill="white"/>
</svg>
