<svg width="27" height="27" viewBox="5 0 30 27" fill="none" xmlns="http://www.w3.org/2000/svg">
<g filter="url(#filter0_d_1_9518)">
<path d="M14.8333 9.29176H9.83325" stroke="white" stroke-width="1.5" stroke-linecap="round" stroke-linejoin="round"/>
<path d="M5.66675 9.29153V5.44153C5.66675 3.74153 7.04175 2.36653 8.74175 2.36653H13.4251C15.1251 2.36653 16.5001 3.42486 16.5001 5.12486" stroke="white" stroke-width="1.5" stroke-linecap="round" stroke-linejoin="round"/>
<path d="M18.5667 10.1665C18.1501 10.5665 17.9501 11.1832 18.1167 11.8165C18.3251 12.5915 19.0918 13.0832 19.8918 13.0832H20.6667V14.2915C20.6667 16.1332 19.1751 17.6249 17.3334 17.6249H9.00008C7.15841 17.6249 5.66675 16.1332 5.66675 14.2915V8.4582C5.66675 6.61653 7.15841 5.12486 9.00008 5.12486H17.3334C19.1667 5.12486 20.6667 6.62486 20.6667 8.4582V9.66649H19.7667C19.3001 9.66649 18.8751 9.84985 18.5667 10.1665Z" stroke="white" stroke-width="1.5" stroke-linecap="round" stroke-linejoin="round"/>
<path d="M22.3333 10.5164V12.233C22.3333 12.6997 21.95 13.083 21.475 13.083H19.8667C18.9667 13.083 18.1417 12.4247 18.0667 11.5247C18.0167 10.9997 18.2167 10.508 18.5667 10.1664C18.875 9.8497 19.3 9.66634 19.7667 9.66634H21.475C21.95 9.66634 22.3333 10.0497 22.3333 10.5164Z" stroke="white" stroke-width="1.5" stroke-linecap="round" stroke-linejoin="round"/>
</g>
<defs>
<filter id="filter0_d_1_9518" x="0.916748" y="1.61653" width="26.1665" height="24.7583" filterUnits="userSpaceOnUse" color-interpolation-filters="sRGB">
<feFlood flood-opacity="0" result="BackgroundImageFix"/>
<feColorMatrix in="SourceAlpha" type="matrix" values="0 0 0 0 0 0 0 0 0 0 0 0 0 0 0 0 0 0 127 0" result="hardAlpha"/>
<feOffset dy="4"/>
<feGaussianBlur stdDeviation="2"/>
<feComposite in2="hardAlpha" operator="out"/>
<feColorMatrix type="matrix" values="0 0 0 0 0 0 0 0 0 0 0 0 0 0 0 0 0 0 0.25 0"/>
<feBlend mode="normal" in2="BackgroundImageFix" result="effect1_dropShadow_1_9518"/>
<feBlend mode="normal" in="SourceGraphic" in2="effect1_dropShadow_1_9518" result="shape"/>
</filter>
</defs>
</svg>
